<svg width="33" height="32" viewBox="0 0 33 32" fill="none" xmlns="http://www.w3.org/2000/svg">
<rect x="0.5" width="32" height="32" rx="8" fill="#F7FAFC"/>
<path d="M20.25 17C20.25 16.5858 19.9142 16.25 19.5 16.25H13.5C13.0858 16.25 12.75 16.5858 12.75 17C12.75 17.4142 13.0858 17.75 13.5 17.75H19.5C19.9142 17.75 20.25 17.4142 20.25 17Z" fill="#3A3E40"/>
<path d="M20.25 21C20.25 20.5858 19.9142 20.25 19.5 20.25H13.5C13.0858 20.25 12.75 20.5858 12.75 21C12.75 21.4142 13.0858 21.75 13.5 21.75H19.5C19.9142 21.75 20.25 21.4142 20.25 21Z" fill="#3A3E40"/>
<path fill-rule="evenodd" clip-rule="evenodd" d="M11.5 6.25C9.98122 6.25 8.75 7.48122 8.75 9V23C8.75 24.5188 9.98122 25.75 11.5 25.75H21.5C23.0188 25.75 24.25 24.5188 24.25 23V11.9677C24.25 11.5869 24.1258 11.2165 23.8963 10.9127L20.8985 6.94504C20.5677 6.5073 20.0509 6.25 19.5022 6.25H11.5ZM10.25 9C10.25 8.30964 10.8096 7.75 11.5 7.75H18.75V12.147C18.75 12.5613 19.0858 12.897 19.5 12.897H22.75V23C22.75 23.6904 22.1904 24.25 21.5 24.25H11.5C10.8096 24.25 10.25 23.6904 10.25 23V9Z" fill="#3A3E40"/>
</svg>
