<svg width="33" height="32" viewBox="0 0 33 32" fill="none" xmlns="http://www.w3.org/2000/svg">
<rect x="0.5" width="32" height="32" rx="8" fill="#F7FAFC"/>
<path fill-rule="evenodd" clip-rule="evenodd" d="M16.5 6.25C16.0858 6.25 15.75 6.58579 15.75 7V11C15.75 11.0001 15.75 10.9999 15.75 11V18.2595C15.0088 17.6299 14.0487 17.25 13 17.25C10.6528 17.25 8.75 19.1528 8.75 21.5C8.75 23.8472 10.6528 25.75 13 25.75C15.3472 25.75 17.25 23.8472 17.25 21.5C17.25 21.3812 17.2451 21.2635 17.2356 21.1472C17.245 21.0996 17.25 21.0504 17.25 21V11.75H22.5C24.0188 11.75 25.25 10.5188 25.25 9C25.25 7.48122 24.0188 6.25 22.5 6.25H16.5ZM17.25 10.25H22.5C23.1904 10.25 23.75 9.69036 23.75 9C23.75 8.30964 23.1904 7.75 22.5 7.75H17.25V10.25ZM13 18.75C11.4812 18.75 10.25 19.9812 10.25 21.5C10.25 23.0188 11.4812 24.25 13 24.25C14.5188 24.25 15.75 23.0188 15.75 21.5C15.75 19.9812 14.5188 18.75 13 18.75Z" fill="#3A3E40"/>
</svg>
