<svg width="17" height="18" viewBox="0 0 17 18" fill="none" xmlns="http://www.w3.org/2000/svg">
<path d="M1.00047 7.36028C2.91687 11.5342 6.32687 14.8527 10.5664 16.6517L11.246 16.9545C12.8009 17.6473 14.6286 17.121 15.5769 15.7075L16.465 14.3838C16.7538 13.9534 16.6659 13.3737 16.2625 13.0483L13.2506 10.6185C12.8083 10.2616 12.1578 10.3448 11.8193 10.8014L10.8876 12.0587C8.49677 10.8793 6.55567 8.93825 5.37637 6.54743L6.63357 5.61571C7.09027 5.27729 7.17337 4.62677 6.81647 4.18439L4.38665 1.17245C4.0613 0.769174 3.4818 0.681204 3.05143 0.969774L1.71859 1.86347C0.296252 2.81717 -0.227128 4.66002 0.481602 6.21897L0.999692 7.35859L1.00047 7.36028Z" fill="#00AB26"/>
</svg>
