<svg width="40" height="40" viewBox="0 0 40 40" fill="none" xmlns="http://www.w3.org/2000/svg">
<path d="M13.3333 15.833C12.1827 15.833 11.25 16.7657 11.25 17.9164C11.25 19.0669 12.1827 19.9997 13.3333 19.9997C14.4839 19.9997 15.4167 19.0669 15.4167 17.9164C15.4167 16.7657 14.4839 15.833 13.3333 15.833Z" fill="#B0BABF"/>
<path d="M20.0001 15.833C18.8494 15.833 17.9167 16.7657 17.9167 17.9164C17.9167 19.0669 18.8494 19.9997 20.0001 19.9997C21.1507 19.9997 22.0834 19.0669 22.0834 17.9164C22.0834 16.7657 21.1507 15.833 20.0001 15.833Z" fill="#B0BABF"/>
<path d="M24.5833 17.9164C24.5833 16.7657 25.5159 15.833 26.6666 15.833C27.8173 15.833 28.7499 16.7657 28.7499 17.9164C28.7499 19.0669 27.8173 19.9997 26.6666 19.9997C25.5159 19.9997 24.5833 19.0669 24.5833 17.9164Z" fill="#B0BABF"/>
<path fill-rule="evenodd" clip-rule="evenodd" d="M26.8346 7.65448C22.3442 7.27154 17.8306 7.24931 13.3366 7.58802L13.0146 7.61229C8.7291 7.93529 5.41675 11.5067 5.41675 15.8043V29.9999C5.41675 30.4397 5.64786 30.847 6.02533 31.0727C6.4028 31.2984 6.8711 31.309 7.25848 31.1009L13.7765 27.598C14.0796 27.435 14.4185 27.3499 14.7627 27.3499H29.7234C31.6102 27.3499 33.2271 26.0009 33.5654 24.1445C34.2509 20.3825 34.3049 16.5326 33.7256 12.7527L33.5549 11.6389C33.2441 9.61094 31.5851 8.05959 29.5409 7.88526L26.8346 7.65448ZM13.5245 10.0809C17.8851 9.75229 22.2651 9.77386 26.6222 10.1454L29.3284 10.3762C30.2224 10.4524 30.9477 11.1308 31.0837 12.0176L31.2544 13.1315C31.7917 16.637 31.7416 20.2075 31.1059 23.6965C30.9841 24.3644 30.4022 24.8499 29.7234 24.8499H14.7627C14.0054 24.8499 13.26 25.0374 12.593 25.3959L7.91675 27.909V15.8043C7.91675 12.8145 10.2211 10.3299 13.2025 10.1052L13.5245 10.0809Z" fill="#B0BABF"/>
</svg>
