<svg width="32" height="32" viewBox="0 0 32 32" fill="none" xmlns="http://www.w3.org/2000/svg">
<rect width="32" height="32" rx="8" fill="#F7FAFC"/>
<path d="M14 13C14 11.8954 14.8954 11 16 11C17.1046 11 18 11.8954 18 13C18 14.1046 17.1046 15 16 15C14.8954 15 14 14.1046 14 13Z" fill="#3A3E40"/>
<path d="M15 16.5C13.3432 16.5 12 17.8432 12 19.5C12 20.0523 12.4477 20.5 13 20.5H19C19.5523 20.5 20 20.0523 20 19.5C20 17.8432 18.6569 16.5 17 16.5H15Z" fill="#3A3E40"/>
<path fill-rule="evenodd" clip-rule="evenodd" d="M11.5436 6.88252C14.4994 6.45778 17.5008 6.45778 20.4566 6.88252C21.9221 7.09311 23.0512 8.2825 23.1853 9.75696L23.3123 11.1527C23.6056 14.3774 23.6056 17.6222 23.3123 20.847L23.1853 22.2427C23.0512 23.7172 21.9221 24.9066 20.4566 25.1171C17.5008 25.5419 14.4994 25.5419 11.5436 25.1171C10.0781 24.9066 8.949 23.7172 8.81488 22.2427L8.68791 20.847C8.39456 17.6222 8.39456 14.3774 8.68791 11.1527L8.81488 9.75696C8.949 8.2825 10.0781 7.09311 11.5436 6.88252ZM20.2432 8.36727C17.4289 7.96287 14.5713 7.96287 11.7569 8.36727C10.9791 8.47904 10.3799 9.1103 10.3087 9.89285L10.1817 11.2886C9.89661 14.4229 9.89661 17.5767 10.1817 20.7111L10.3087 22.1068C10.3799 22.8894 10.9791 23.5206 11.7569 23.6324C14.5713 24.0368 17.4289 24.0368 20.2432 23.6324C21.021 23.5206 21.6203 22.8894 21.6915 22.1068L21.8184 20.7111C22.1036 17.5767 22.1036 14.4229 21.8184 11.2886L21.6915 9.89285C21.6203 9.1103 21.021 8.47904 20.2432 8.36727Z" fill="#3A3E40"/>
</svg>
