<svg width="32" height="32" viewBox="0 0 32 32" fill="none" xmlns="http://www.w3.org/2000/svg">
<rect width="32" height="32" rx="8" fill="#00AB26"/>
<path fill-rule="evenodd" clip-rule="evenodd" d="M17.5578 9.53423C16.6873 8.69887 15.3127 8.69887 14.4422 9.53423L9.81574 13.9736C9.70239 14.0823 9.62614 14.224 9.5978 14.3785C9.04367 17.4004 9.00277 20.494 9.47681 23.5295L9.58933 24.25H12.5658V18.0387C12.5658 17.6244 12.9016 17.2887 13.3158 17.2887H18.6842C19.0984 17.2887 19.4342 17.6244 19.4342 18.0387V24.25H22.4107L22.5232 23.5295C22.9972 20.494 22.9563 17.4004 22.4022 14.3785C22.3739 14.224 22.2976 14.0823 22.1843 13.9736L17.5578 9.53423ZM13.4036 8.45191C14.8546 7.05965 17.1454 7.05965 18.5964 8.45191L23.2228 12.8912C23.5634 13.218 23.7925 13.6437 23.8776 14.108C24.4621 17.2956 24.5053 20.559 24.0052 23.7609L23.8245 24.9184C23.7497 25.3971 23.3374 25.75 22.8529 25.75H18.6842C18.27 25.75 17.9342 25.4142 17.9342 25V18.7887H14.0658V25C14.0658 25.4142 13.73 25.75 13.3158 25.75H9.14706C8.66258 25.75 8.25029 25.3971 8.17554 24.9184L7.99478 23.7609C7.49473 20.559 7.53788 17.2956 8.12241 14.108C8.20754 13.6437 8.43662 13.218 8.77719 12.8912L13.4036 8.45191Z" fill="white"/>
</svg>
