<svg width="33" height="32" viewBox="0 0 33 32" fill="none" xmlns="http://www.w3.org/2000/svg">
<rect x="0.5" width="32" height="32" rx="8" fill="white"/>
<path d="M23.4551 6.04486C23.7479 6.33775 23.7479 6.81263 23.4551 7.10552L22.9046 7.65597C26.1936 11.4871 26.0236 17.2649 22.3944 20.8941C20.6814 22.6071 18.4898 23.5494 16.2501 23.7211V25.2498H18.0001C18.4143 25.2498 18.7501 25.5856 18.7501 25.9998C18.7501 26.414 18.4143 26.7498 18.0001 26.7498H13.0001C12.5858 26.7498 12.2501 26.414 12.2501 25.9998C12.2501 25.5856 12.5858 25.2498 13.0001 25.2498H14.7501V23.7211C12.7438 23.5672 10.776 22.7949 9.15622 21.4043L8.60577 21.9548C8.31288 22.2476 7.838 22.2476 7.54511 21.9548C7.25222 21.6619 7.25222 21.187 7.54511 20.8941L8.25222 20.187C8.74765 19.6915 9.51752 19.7169 9.99983 20.1491C11.5618 21.5489 13.5293 22.2491 15.4971 22.2498H15.5001H15.5033C17.6136 22.2489 19.7237 21.4435 21.3337 19.8334C24.4466 16.7205 24.5519 11.7383 21.6494 8.49958C21.2172 8.01727 21.1918 7.2474 21.6873 6.75197L22.3944 6.04486C22.6873 5.75197 23.1622 5.75197 23.4551 6.04486Z" fill="#3A3E40"/>
<path fill-rule="evenodd" clip-rule="evenodd" d="M8.75 14C8.75 10.2721 11.7721 7.25 15.5 7.25C19.2279 7.25 22.25 10.2721 22.25 14C22.25 17.7279 19.2279 20.75 15.5 20.75C11.7721 20.75 8.75 17.7279 8.75 14ZM15.5 8.75C12.6005 8.75 10.25 11.1005 10.25 14C10.25 14.3348 10.2813 14.6623 10.3413 14.9798C10.7526 14.5312 11.3435 14.25 12 14.25C13.2426 14.25 14.25 15.2574 14.25 16.5C14.25 17.4223 13.695 18.2151 12.9008 18.5624C13.6671 19 14.5544 19.25 15.5 19.25C18.0434 19.25 20.1643 17.4414 20.647 15.0402C19.9784 16.0694 18.8187 16.75 17.5 16.75C15.4289 16.75 13.75 15.0711 13.75 13C13.75 10.9289 15.4289 9.25 17.5 9.25C17.5865 9.25 17.6723 9.25293 17.7573 9.25869C17.0735 8.93256 16.3081 8.75 15.5 8.75ZM15.25 13C15.25 11.7574 16.2574 10.75 17.5 10.75C18.7426 10.75 19.75 11.7574 19.75 13C19.75 14.2426 18.7426 15.25 17.5 15.25C16.2574 15.25 15.25 14.2426 15.25 13ZM12 15.75C11.5858 15.75 11.25 16.0858 11.25 16.5C11.25 16.9142 11.5858 17.25 12 17.25C12.4142 17.25 12.75 16.9142 12.75 16.5C12.75 16.0858 12.4142 15.75 12 15.75Z" fill="#3A3E40"/>
</svg>
