<svg xmlns="http://www.w3.org/2000/svg" width="32" height="32" viewBox="0 0 32 32" fill="none">
<rect width="32" height="32" rx="8" fill="#00ab26"/>
<path fill-rule="evenodd" clip-rule="evenodd" d="M10.9282 7.49804C10.6106 7.589 10.3995 7.72057 10.1493 7.98356C9.79586 8.35513 9.65713 8.74558 9.65713 9.36864V9.70889L7.95399 9.71882L7.24504 9.72294C6.69503 9.72614 6.25085 10.1729 6.25085 10.7229V15.9323C6.25085 22.9008 6.22843 22.3488 6.53694 22.9733C6.82128 23.5489 7.27741 24.0058 7.84933 24.2879C8.47574 24.597 7.7514 24.5717 15.994 24.5717C24.2897 24.5717 23.5071 24.6015 24.1957 24.2595C24.4976 24.1095 24.614 24.0232 24.9013 23.7359C25.2724 23.3648 25.4727 23.0376 25.6476 22.5165L25.7371 22.2501L25.7473 15.6279C25.7544 10.9876 25.7451 8.94615 25.7162 8.80697C25.6196 8.34116 25.2682 7.86543 24.8588 7.64625C24.424 7.4134 24.8355 7.42588 17.6891 7.42885C11.5947 7.4314 11.145 7.43601 10.9282 7.49804ZM22.347 8.71064C22.3301 8.76822 22.3106 11.0717 22.3038 13.8296L22.2913 18.8439H21.7402H21.189V14.2768V10.7097C21.189 10.1574 20.7413 9.70969 20.189 9.70969H16.0094H10.8298L10.8429 9.33176C10.8576 8.90649 10.9099 8.79209 11.1441 8.67266C11.2666 8.6102 11.6161 8.60609 16.8262 8.60606L22.3777 8.60598L22.347 8.71064ZM24.271 8.67266C24.3439 8.70923 24.4424 8.79738 24.4899 8.86851L24.5763 8.99783L24.5758 15.4717C24.5754 20.7557 24.566 21.9806 24.5245 22.136C24.3615 22.7452 23.9101 23.1937 23.3 23.3526C22.554 23.5469 21.7964 23.2051 21.425 22.5067C21.2288 22.1376 21.1904 21.874 21.1897 20.8895L21.189 20.0237H22.3304H22.4736C23.0252 20.0237 23.4726 19.5771 23.4736 19.0255L23.4817 14.4889C23.4916 8.95841 23.4917 8.95399 23.5704 8.84663C23.6673 8.71449 23.8719 8.60609 24.0244 8.60609C24.0872 8.60609 24.1982 8.63605 24.271 8.67266ZM20.0177 16.4937L20.0282 22.0979L20.1333 22.4331C20.2397 22.7723 20.3787 23.08 20.5088 23.2646C20.548 23.3201 20.5801 23.3758 20.5801 23.3882C20.5801 23.4007 17.9548 23.4109 14.746 23.4109C8.45397 23.4109 8.71346 23.4188 8.31719 23.2166C8.09709 23.1043 7.77374 22.7884 7.64038 22.5553C7.40305 22.1404 7.41283 22.4056 7.41222 16.3795L7.41165 10.8895H13.7095H20.0072L20.0177 16.4937ZM8.53283 12.0408C8.52282 12.067 8.51909 13.0988 8.52453 14.3339L8.53439 16.5793L13.7199 16.589L18.9055 16.5986V14.296V11.9932H13.7283C9.62154 11.9932 8.54725 12.003 8.53283 12.0408ZM17.7256 14.2958V15.4185H13.7104H9.69519V14.2958V13.1731H13.7104H17.7256V14.2958ZM8.53207 17.7515C8.52164 17.7787 8.51791 18.0399 8.52373 18.3319L8.53439 18.8629L13.7199 18.8725L18.9055 18.8822V18.2921V17.7021H13.7283C9.51917 17.7021 8.54748 17.7113 8.53207 17.7515ZM8.53207 20.035C8.52164 20.0622 8.51791 20.3234 8.52373 20.6154L8.53439 21.1464L13.7199 21.1561L18.9055 21.1657V20.5757V19.9856H13.7283C9.51917 19.9856 8.54748 19.9949 8.53207 20.035Z" fill="#ffffff"/>
</svg>