<svg xmlns="http://www.w3.org/2000/svg" width="33" height="32" viewBox="0 0 33 32" fill="none">
<rect x="0.5" width="32" height="32" rx="8" fill="#00ab26"/>
<path d="M18.5 13C18.5 12.1716 19.1716 11.5 20 11.5C20.8284 11.5 21.5 12.1716 21.5 13C21.5 13.8284 20.8284 14.5 20 14.5C19.1716 14.5 18.5 13.8284 18.5 13Z" fill="#ffffff"/>
<path fill-rule="evenodd" clip-rule="evenodd" d="M11.7675 8.65843C14.9166 8.38469 18.0834 8.38469 21.2325 8.65843L22.7427 8.78971C24.1878 8.91533 25.3585 10.015 25.5742 11.4494C26.0278 14.4661 26.0278 17.5337 25.5742 20.5504C25.3585 21.9848 24.1878 23.0844 22.7427 23.2101L21.2325 23.3413C18.0834 23.6151 14.9166 23.6151 11.7675 23.3413L10.2573 23.2101C8.81223 23.0844 7.64156 21.9848 7.42586 20.5504C6.97222 17.5337 6.97222 14.4661 7.42586 11.4494C7.64156 10.015 8.81223 8.91533 10.2573 8.78971L11.7675 8.65843ZM21.1026 10.1528C18.04 9.88657 14.96 9.88657 11.8974 10.1528L10.3872 10.2841C9.63287 10.3497 9.02178 10.9237 8.90919 11.6724C8.65165 13.385 8.54786 15.1149 8.5978 16.8414L12.4697 12.9696C12.6157 12.8235 12.8156 12.7441 13.022 12.7502C13.2285 12.7563 13.4233 12.8472 13.5606 13.0016L17.232 17.132L19.7628 16.2884C20.0459 16.194 20.3579 16.2764 20.5575 16.4982L24.0766 20.4083C24.082 20.3816 24.0867 20.3546 24.0908 20.3273C24.5222 17.4585 24.5222 14.5413 24.0908 11.6724C23.9782 10.9237 23.3671 10.3497 22.6128 10.2841L21.1026 10.1528ZM23.1202 21.5879L19.7711 17.8668L17.2372 18.7114C16.9525 18.8063 16.6388 18.7224 16.4394 18.4982L12.9679 14.5927L8.7242 18.8364C8.77298 19.3345 8.83464 19.8316 8.90919 20.3273C9.02178 21.0761 9.63287 21.6501 10.3872 21.7157L11.8974 21.847C14.96 22.1132 18.04 22.1132 21.1026 21.847L22.6128 21.7157C22.7915 21.7002 22.9622 21.6561 23.1202 21.5879Z" fill="#ffffff"/>
</svg>