<svg xmlns="http://www.w3.org/2000/svg" width="32" height="32" viewBox="0 0 32 32" fill="none">
<rect width="32" height="32" rx="8" fill="#00ab26"/>
<path fill-rule="evenodd" clip-rule="evenodd" d="M16 7.75C12.7586 7.75 10.244 9.78002 9.81483 12.25H12C12.4142 12.25 12.75 12.5858 12.75 13V20C12.75 20.4142 12.4142 20.75 12 20.75H9C7.48122 20.75 6.25 19.5188 6.25 18V15C6.25 13.7284 7.11311 12.6583 8.28547 12.3437C8.66693 8.83959 12.0738 6.25 16 6.25C19.9262 6.25 23.3331 8.83959 23.7145 12.3438C24.8869 12.6583 25.75 13.7284 25.75 15V18C25.75 19.2752 24.8821 20.3477 23.7047 20.6589C23.3839 22.9704 21.3998 24.75 19 24.75H17.8546C17.5579 25.483 16.8393 26 16 26C14.8954 26 14 25.1046 14 24C14 22.8954 14.8954 22 16 22C16.8393 22 17.5579 22.517 17.8546 23.25H19C20.5368 23.25 21.8245 22.1834 22.1631 20.75H20C19.5858 20.75 19.25 20.4142 19.25 20V13C19.25 12.5858 19.5858 12.25 20 12.25H22.1852C21.756 9.78002 19.2414 7.75 16 7.75ZM9 13.75C8.30964 13.75 7.75 14.3096 7.75 15V18C7.75 18.6904 8.30964 19.25 9 19.25H11.25V13.75H9ZM24.25 15C24.25 14.3096 23.6904 13.75 23 13.75H20.75V19.25H23C23.6904 19.25 24.25 18.6904 24.25 18V15Z" fill="#ffffff"/>
</svg>