<svg width="33" height="32" viewBox="0 0 33 32" fill="none" xmlns="http://www.w3.org/2000/svg">
<rect x="0.5" width="32" height="32" rx="8" fill="#F7FAFC"/>
<mask id="path-2-outside-1_94_10369" maskUnits="userSpaceOnUse" x="4.5" y="8" width="24" height="16" fill="black">
<rect fill="white" x="4.5" y="8" width="24" height="16"/>
<path fill-rule="evenodd" clip-rule="evenodd" d="M8.90455 9.0565C8.64822 9.1278 8.40762 9.26967 8.2414 9.44747C8.1069 9.59135 5.62128 13.8595 5.54806 14.0724C5.47565 14.2829 5.48678 14.7546 5.56989 14.9983C5.67122 15.2953 6.06467 15.6715 6.5048 15.8923C6.83173 16.0563 6.86229 16.0632 7.26438 16.0646L7.68332 16.0659L8.22116 16.7711L8.75896 17.4762L8.71483 17.6668C8.5398 18.4232 9.14657 19.2498 9.92859 19.3203C10.1713 19.3422 10.175 19.3446 10.2035 19.4956C10.3018 20.0163 10.8502 20.5007 11.406 20.5578C11.6246 20.5802 11.6406 20.5898 11.6678 20.7148C11.7882 21.2688 12.283 21.6939 12.9214 21.7919C13.0914 21.818 13.107 21.8319 13.1506 21.996C13.2179 22.2493 13.4309 22.5611 13.6506 22.7279C13.9316 22.9412 14.2096 23.0194 14.6028 22.996C15.1434 22.9637 15.3193 22.8413 16.0756 21.9702L16.1767 21.8538L16.4979 22.1372C16.9312 22.5195 17.1983 22.6392 17.6163 22.6384C18.1659 22.6374 18.6203 22.3628 18.8593 21.8874C18.932 21.7428 18.9914 21.6013 18.9914 21.5729C18.9914 21.5391 19.0993 21.5142 19.303 21.5009C19.8105 21.4678 20.2811 21.1662 20.468 20.7541L20.5422 20.5907L21.0238 20.5911C21.4766 20.5915 21.5189 20.584 21.7333 20.466C22.2985 20.1547 22.5912 19.5249 22.4604 18.9015C22.4303 18.7585 22.4371 18.7453 22.5742 18.6803C22.9313 18.511 23.2293 18.1236 23.3095 17.7241C23.3486 17.5293 23.4398 17.3954 24.0772 16.5977L24.8005 15.6924L24.8933 15.7769C25.1226 15.9855 25.3545 16.0617 25.7628 16.0625C26.1336 16.0632 26.1693 16.0548 26.4897 15.8923C26.9081 15.6801 27.2448 15.3807 27.3895 15.0922C27.4792 14.913 27.5 14.8103 27.5 14.5446C27.5 14.3648 27.4775 14.1523 27.45 14.0724C27.3624 13.8178 24.8776 9.5761 24.7221 9.4159C24.532 9.2199 24.2631 9.08662 23.9357 9.02608C23.7221 8.98661 23.6345 8.99037 23.4255 9.04813C23.0943 9.13968 22.5822 9.43577 22.3567 9.66611C22.1922 9.83409 21.9995 10.2208 21.9995 10.3831C21.9995 10.4174 21.993 10.4455 21.9851 10.4455C21.9772 10.4455 21.779 10.3676 21.5447 10.2723C20.5613 9.87232 19.9189 9.77787 18.4543 9.81794C17.4898 9.8443 17.0948 9.90731 16.5562 10.1207L16.2051 10.2598L14.9018 10.093C12.9663 9.84524 12.5165 9.86066 11.4712 10.2106C11.2255 10.2929 11.0129 10.3457 10.9988 10.3281C10.9847 10.3105 10.9472 10.2191 10.9154 10.1251C10.7826 9.73195 10.4635 9.43808 9.87075 9.16313C9.53883 9.00917 9.20652 8.97247 8.90455 9.0565ZM9.71201 10.1267C10.0433 10.3268 10.1378 10.5025 10.0422 10.7412C9.97109 10.9187 7.6232 14.9687 7.54477 15.0491C7.37843 15.2197 7.09206 15.1804 6.70561 14.9339C6.46015 14.7773 6.36402 14.5828 6.43432 14.3852C6.52289 14.1363 8.86106 10.161 8.98676 10.0456C9.16037 9.88621 9.34859 9.90727 9.71201 10.1267ZM24.0168 10.0504C24.1513 10.174 26.5292 14.239 26.5764 14.426C26.6291 14.6347 26.5022 14.8229 26.1923 14.9952C25.8839 15.1666 25.6714 15.196 25.5115 15.0895C25.4201 15.0286 22.9832 10.8662 22.9258 10.6729C22.8842 10.5328 23.0029 10.2986 23.1656 10.2002C23.6698 9.89535 23.8194 9.86899 24.0168 10.0504ZM20.3526 10.846C20.7113 10.9365 22.2616 11.5509 22.3481 11.6369C22.3862 11.6748 22.8285 12.4159 23.331 13.2838C24.1359 14.6741 24.2383 14.8718 24.192 14.9456C24.1631 14.9916 23.8784 15.3531 23.5593 15.7489L22.9793 16.4686L22.8009 16.3023C22.5195 16.0401 18.7666 12.8354 18.6528 12.7602C18.5966 12.723 18.4902 12.6937 18.4165 12.695C18.3427 12.6963 17.5156 13.0077 16.5785 13.3871C15.2677 13.9176 14.8314 14.0765 14.6877 14.0758C13.9334 14.072 13.573 13.1715 14.121 12.6598C14.2833 12.5083 16.4172 11.1843 16.6988 11.0604C17.304 10.7942 17.6794 10.7467 19.0344 10.765C19.8087 10.7754 20.1574 10.7968 20.3526 10.846ZM13.9618 10.9179C14.3765 10.9662 14.75 11.0191 14.7919 11.0354C14.8499 11.0579 14.7278 11.1518 14.2809 11.4281C13.6028 11.8473 13.3795 12.0302 13.2 12.3138C12.9884 12.6484 12.9197 12.9222 12.9403 13.3499C12.9554 13.6652 12.9805 13.7694 13.099 14.0086C13.4492 14.7157 14.2137 15.1172 14.9628 14.9873C15.1222 14.9597 15.8578 14.6875 16.7726 14.3176C18.0659 13.7947 18.3257 13.7028 18.3869 13.7467C18.427 13.7755 19.3334 14.5479 20.4011 15.4631C22.4897 17.2534 22.4881 17.2517 22.3865 17.5577C22.3172 17.7666 22.1579 17.8788 21.9308 17.8788C21.7173 17.8788 21.7369 17.8934 20.8278 17.0564C20.2498 16.5243 20.2317 16.5118 20.0402 16.5118C19.8809 16.5118 19.8208 16.5351 19.7187 16.6366C19.6161 16.7386 19.5931 16.7977 19.5931 16.9587C19.5931 17.1952 19.5814 17.182 20.6889 18.1984C21.1334 18.6064 21.4866 18.9652 21.5194 19.0421C21.5955 19.2208 21.5522 19.4198 21.4081 19.5539C21.0999 19.8408 20.9612 19.7853 20.1796 19.0619C19.8215 18.7305 19.3977 18.3384 19.2377 18.1905C18.969 17.942 18.932 17.9215 18.751 17.9215C18.5918 17.9215 18.5316 17.9449 18.4295 18.0464C18.3255 18.1498 18.3039 18.2066 18.3039 18.3767V18.582L18.9688 19.2168C19.5044 19.7283 19.639 19.88 19.6612 19.998C19.7332 20.3793 19.3165 20.6983 18.9779 20.521C18.9263 20.494 18.6194 20.2239 18.2961 19.9208C17.9236 19.5717 17.6566 19.355 17.5677 19.3296C17.3707 19.2735 17.1467 19.3881 17.0435 19.598C16.9177 19.854 16.9889 19.9857 17.5148 20.4698C17.7632 20.6984 17.994 20.9386 18.0277 21.0034C18.1303 21.2006 18.1063 21.414 17.9656 21.5538C17.6985 21.8193 17.4849 21.7755 17.022 21.3605L16.6885 21.0614L16.6894 20.7197C16.6904 20.3339 16.5784 20.0281 16.3351 19.7526C16.1984 19.5979 15.7477 19.3313 15.6228 19.3313C15.5697 19.3313 15.5536 19.2877 15.5536 19.1435C15.5536 18.5277 15.125 17.9409 14.5525 17.7728C14.3796 17.7221 14.3746 17.7155 14.386 17.554C14.4215 17.0543 14.0368 16.4619 13.53 16.2357C13.2903 16.1288 13.2284 16.1191 12.8897 16.1352L12.5149 16.153L12.4164 15.9685C12.1449 15.4598 11.4744 15.1525 10.896 15.2719C10.54 15.3453 10.2491 15.567 9.77298 16.1273C9.54338 16.3975 9.34137 16.624 9.32396 16.6307C9.3066 16.6374 9.09411 16.3803 8.85178 16.0594C8.46937 15.5531 8.41703 15.4641 8.45528 15.3852C8.47951 15.3352 9.00163 14.4299 9.61545 13.3736L10.7316 11.4529L11.5218 11.1838C12.6442 10.8016 12.8095 10.7836 13.9618 10.9179ZM11.4582 16.2536C11.6447 16.3666 11.7194 16.6064 11.6323 16.8128C11.5291 17.0577 10.4214 18.3319 10.2645 18.3862C10.0288 18.4679 9.75717 18.3529 9.66525 18.1323C9.55838 17.8759 9.62434 17.7496 10.2625 16.9883C10.5931 16.5939 10.9085 16.2497 10.9633 16.2235C11.1165 16.1502 11.3067 16.1618 11.4582 16.2536ZM13.2331 17.1476C13.3862 17.2569 13.4614 17.4316 13.429 17.6031C13.3942 17.7873 11.9177 19.5618 11.7655 19.6023C11.3476 19.7135 11.0175 19.4327 11.1043 19.0397C11.1283 18.9314 12.1852 17.632 12.5769 17.2294C12.7918 17.0086 13.0017 16.9825 13.2331 17.1476ZM14.3841 18.7144C14.5022 18.7967 14.6083 18.9937 14.6083 19.131C14.6083 19.265 14.5084 19.4071 13.9268 20.1013C13.2662 20.8896 13.1562 20.9586 12.8154 20.7978C12.6345 20.7124 12.5261 20.4942 12.5643 20.2922C12.5814 20.2016 12.7839 19.9264 13.1714 19.4671C13.4913 19.088 13.795 18.7486 13.8464 18.7128C13.9675 18.6284 14.2619 18.6293 14.3841 18.7144ZM15.5635 20.3124C15.6226 20.3586 15.6951 20.4544 15.7246 20.5252C15.8221 20.7591 15.7531 20.9055 15.2901 21.4483C15.0512 21.7285 14.8173 21.9845 14.7704 22.0172C14.6479 22.1024 14.385 22.0977 14.2469 22.0077C14.0998 21.9119 13.9929 21.6693 14.028 21.5108C14.0587 21.3716 14.8519 20.412 15.0259 20.3034C15.1856 20.2037 15.4298 20.2078 15.5635 20.3124Z"/>
</mask>
<path fill-rule="evenodd" clip-rule="evenodd" d="M8.90455 9.0565C8.64822 9.1278 8.40762 9.26967 8.2414 9.44747C8.1069 9.59135 5.62128 13.8595 5.54806 14.0724C5.47565 14.2829 5.48678 14.7546 5.56989 14.9983C5.67122 15.2953 6.06467 15.6715 6.5048 15.8923C6.83173 16.0563 6.86229 16.0632 7.26438 16.0646L7.68332 16.0659L8.22116 16.7711L8.75896 17.4762L8.71483 17.6668C8.5398 18.4232 9.14657 19.2498 9.92859 19.3203C10.1713 19.3422 10.175 19.3446 10.2035 19.4956C10.3018 20.0163 10.8502 20.5007 11.406 20.5578C11.6246 20.5802 11.6406 20.5898 11.6678 20.7148C11.7882 21.2688 12.283 21.6939 12.9214 21.7919C13.0914 21.818 13.107 21.8319 13.1506 21.996C13.2179 22.2493 13.4309 22.5611 13.6506 22.7279C13.9316 22.9412 14.2096 23.0194 14.6028 22.996C15.1434 22.9637 15.3193 22.8413 16.0756 21.9702L16.1767 21.8538L16.4979 22.1372C16.9312 22.5195 17.1983 22.6392 17.6163 22.6384C18.1659 22.6374 18.6203 22.3628 18.8593 21.8874C18.932 21.7428 18.9914 21.6013 18.9914 21.5729C18.9914 21.5391 19.0993 21.5142 19.303 21.5009C19.8105 21.4678 20.2811 21.1662 20.468 20.7541L20.5422 20.5907L21.0238 20.5911C21.4766 20.5915 21.5189 20.584 21.7333 20.466C22.2985 20.1547 22.5912 19.5249 22.4604 18.9015C22.4303 18.7585 22.4371 18.7453 22.5742 18.6803C22.9313 18.511 23.2293 18.1236 23.3095 17.7241C23.3486 17.5293 23.4398 17.3954 24.0772 16.5977L24.8005 15.6924L24.8933 15.7769C25.1226 15.9855 25.3545 16.0617 25.7628 16.0625C26.1336 16.0632 26.1693 16.0548 26.4897 15.8923C26.9081 15.6801 27.2448 15.3807 27.3895 15.0922C27.4792 14.913 27.5 14.8103 27.5 14.5446C27.5 14.3648 27.4775 14.1523 27.45 14.0724C27.3624 13.8178 24.8776 9.5761 24.7221 9.4159C24.532 9.2199 24.2631 9.08662 23.9357 9.02608C23.7221 8.98661 23.6345 8.99037 23.4255 9.04813C23.0943 9.13968 22.5822 9.43577 22.3567 9.66611C22.1922 9.83409 21.9995 10.2208 21.9995 10.3831C21.9995 10.4174 21.993 10.4455 21.9851 10.4455C21.9772 10.4455 21.779 10.3676 21.5447 10.2723C20.5613 9.87232 19.9189 9.77787 18.4543 9.81794C17.4898 9.8443 17.0948 9.90731 16.5562 10.1207L16.2051 10.2598L14.9018 10.093C12.9663 9.84524 12.5165 9.86066 11.4712 10.2106C11.2255 10.2929 11.0129 10.3457 10.9988 10.3281C10.9847 10.3105 10.9472 10.2191 10.9154 10.1251C10.7826 9.73195 10.4635 9.43808 9.87075 9.16313C9.53883 9.00917 9.20652 8.97247 8.90455 9.0565ZM9.71201 10.1267C10.0433 10.3268 10.1378 10.5025 10.0422 10.7412C9.97109 10.9187 7.6232 14.9687 7.54477 15.0491C7.37843 15.2197 7.09206 15.1804 6.70561 14.9339C6.46015 14.7773 6.36402 14.5828 6.43432 14.3852C6.52289 14.1363 8.86106 10.161 8.98676 10.0456C9.16037 9.88621 9.34859 9.90727 9.71201 10.1267ZM24.0168 10.0504C24.1513 10.174 26.5292 14.239 26.5764 14.426C26.6291 14.6347 26.5022 14.8229 26.1923 14.9952C25.8839 15.1666 25.6714 15.196 25.5115 15.0895C25.4201 15.0286 22.9832 10.8662 22.9258 10.6729C22.8842 10.5328 23.0029 10.2986 23.1656 10.2002C23.6698 9.89535 23.8194 9.86899 24.0168 10.0504ZM20.3526 10.846C20.7113 10.9365 22.2616 11.5509 22.3481 11.6369C22.3862 11.6748 22.8285 12.4159 23.331 13.2838C24.1359 14.6741 24.2383 14.8718 24.192 14.9456C24.1631 14.9916 23.8784 15.3531 23.5593 15.7489L22.9793 16.4686L22.8009 16.3023C22.5195 16.0401 18.7666 12.8354 18.6528 12.7602C18.5966 12.723 18.4902 12.6937 18.4165 12.695C18.3427 12.6963 17.5156 13.0077 16.5785 13.3871C15.2677 13.9176 14.8314 14.0765 14.6877 14.0758C13.9334 14.072 13.573 13.1715 14.121 12.6598C14.2833 12.5083 16.4172 11.1843 16.6988 11.0604C17.304 10.7942 17.6794 10.7467 19.0344 10.765C19.8087 10.7754 20.1574 10.7968 20.3526 10.846ZM13.9618 10.9179C14.3765 10.9662 14.75 11.0191 14.7919 11.0354C14.8499 11.0579 14.7278 11.1518 14.2809 11.4281C13.6028 11.8473 13.3795 12.0302 13.2 12.3138C12.9884 12.6484 12.9197 12.9222 12.9403 13.3499C12.9554 13.6652 12.9805 13.7694 13.099 14.0086C13.4492 14.7157 14.2137 15.1172 14.9628 14.9873C15.1222 14.9597 15.8578 14.6875 16.7726 14.3176C18.0659 13.7947 18.3257 13.7028 18.3869 13.7467C18.427 13.7755 19.3334 14.5479 20.4011 15.4631C22.4897 17.2534 22.4881 17.2517 22.3865 17.5577C22.3172 17.7666 22.1579 17.8788 21.9308 17.8788C21.7173 17.8788 21.7369 17.8934 20.8278 17.0564C20.2498 16.5243 20.2317 16.5118 20.0402 16.5118C19.8809 16.5118 19.8208 16.5351 19.7187 16.6366C19.6161 16.7386 19.5931 16.7977 19.5931 16.9587C19.5931 17.1952 19.5814 17.182 20.6889 18.1984C21.1334 18.6064 21.4866 18.9652 21.5194 19.0421C21.5955 19.2208 21.5522 19.4198 21.4081 19.5539C21.0999 19.8408 20.9612 19.7853 20.1796 19.0619C19.8215 18.7305 19.3977 18.3384 19.2377 18.1905C18.969 17.942 18.932 17.9215 18.751 17.9215C18.5918 17.9215 18.5316 17.9449 18.4295 18.0464C18.3255 18.1498 18.3039 18.2066 18.3039 18.3767V18.582L18.9688 19.2168C19.5044 19.7283 19.639 19.88 19.6612 19.998C19.7332 20.3793 19.3165 20.6983 18.9779 20.521C18.9263 20.494 18.6194 20.2239 18.2961 19.9208C17.9236 19.5717 17.6566 19.355 17.5677 19.3296C17.3707 19.2735 17.1467 19.3881 17.0435 19.598C16.9177 19.854 16.9889 19.9857 17.5148 20.4698C17.7632 20.6984 17.994 20.9386 18.0277 21.0034C18.1303 21.2006 18.1063 21.414 17.9656 21.5538C17.6985 21.8193 17.4849 21.7755 17.022 21.3605L16.6885 21.0614L16.6894 20.7197C16.6904 20.3339 16.5784 20.0281 16.3351 19.7526C16.1984 19.5979 15.7477 19.3313 15.6228 19.3313C15.5697 19.3313 15.5536 19.2877 15.5536 19.1435C15.5536 18.5277 15.125 17.9409 14.5525 17.7728C14.3796 17.7221 14.3746 17.7155 14.386 17.554C14.4215 17.0543 14.0368 16.4619 13.53 16.2357C13.2903 16.1288 13.2284 16.1191 12.8897 16.1352L12.5149 16.153L12.4164 15.9685C12.1449 15.4598 11.4744 15.1525 10.896 15.2719C10.54 15.3453 10.2491 15.567 9.77298 16.1273C9.54338 16.3975 9.34137 16.624 9.32396 16.6307C9.3066 16.6374 9.09411 16.3803 8.85178 16.0594C8.46937 15.5531 8.41703 15.4641 8.45528 15.3852C8.47951 15.3352 9.00163 14.4299 9.61545 13.3736L10.7316 11.4529L11.5218 11.1838C12.6442 10.8016 12.8095 10.7836 13.9618 10.9179ZM11.4582 16.2536C11.6447 16.3666 11.7194 16.6064 11.6323 16.8128C11.5291 17.0577 10.4214 18.3319 10.2645 18.3862C10.0288 18.4679 9.75717 18.3529 9.66525 18.1323C9.55838 17.8759 9.62434 17.7496 10.2625 16.9883C10.5931 16.5939 10.9085 16.2497 10.9633 16.2235C11.1165 16.1502 11.3067 16.1618 11.4582 16.2536ZM13.2331 17.1476C13.3862 17.2569 13.4614 17.4316 13.429 17.6031C13.3942 17.7873 11.9177 19.5618 11.7655 19.6023C11.3476 19.7135 11.0175 19.4327 11.1043 19.0397C11.1283 18.9314 12.1852 17.632 12.5769 17.2294C12.7918 17.0086 13.0017 16.9825 13.2331 17.1476ZM14.3841 18.7144C14.5022 18.7967 14.6083 18.9937 14.6083 19.131C14.6083 19.265 14.5084 19.4071 13.9268 20.1013C13.2662 20.8896 13.1562 20.9586 12.8154 20.7978C12.6345 20.7124 12.5261 20.4942 12.5643 20.2922C12.5814 20.2016 12.7839 19.9264 13.1714 19.4671C13.4913 19.088 13.795 18.7486 13.8464 18.7128C13.9675 18.6284 14.2619 18.6293 14.3841 18.7144ZM15.5635 20.3124C15.6226 20.3586 15.6951 20.4544 15.7246 20.5252C15.8221 20.7591 15.7531 20.9055 15.2901 21.4483C15.0512 21.7285 14.8173 21.9845 14.7704 22.0172C14.6479 22.1024 14.385 22.0977 14.2469 22.0077C14.0998 21.9119 13.9929 21.6693 14.028 21.5108C14.0587 21.3716 14.8519 20.412 15.0259 20.3034C15.1856 20.2037 15.4298 20.2078 15.5635 20.3124Z" fill="#3A3E40"/>
<path fill-rule="evenodd" clip-rule="evenodd" d="M8.90455 9.0565C8.64822 9.1278 8.40762 9.26967 8.2414 9.44747C8.1069 9.59135 5.62128 13.8595 5.54806 14.0724C5.47565 14.2829 5.48678 14.7546 5.56989 14.9983C5.67122 15.2953 6.06467 15.6715 6.5048 15.8923C6.83173 16.0563 6.86229 16.0632 7.26438 16.0646L7.68332 16.0659L8.22116 16.7711L8.75896 17.4762L8.71483 17.6668C8.5398 18.4232 9.14657 19.2498 9.92859 19.3203C10.1713 19.3422 10.175 19.3446 10.2035 19.4956C10.3018 20.0163 10.8502 20.5007 11.406 20.5578C11.6246 20.5802 11.6406 20.5898 11.6678 20.7148C11.7882 21.2688 12.283 21.6939 12.9214 21.7919C13.0914 21.818 13.107 21.8319 13.1506 21.996C13.2179 22.2493 13.4309 22.5611 13.6506 22.7279C13.9316 22.9412 14.2096 23.0194 14.6028 22.996C15.1434 22.9637 15.3193 22.8413 16.0756 21.9702L16.1767 21.8538L16.4979 22.1372C16.9312 22.5195 17.1983 22.6392 17.6163 22.6384C18.1659 22.6374 18.6203 22.3628 18.8593 21.8874C18.932 21.7428 18.9914 21.6013 18.9914 21.5729C18.9914 21.5391 19.0993 21.5142 19.303 21.5009C19.8105 21.4678 20.2811 21.1662 20.468 20.7541L20.5422 20.5907L21.0238 20.5911C21.4766 20.5915 21.5189 20.584 21.7333 20.466C22.2985 20.1547 22.5912 19.5249 22.4604 18.9015C22.4303 18.7585 22.4371 18.7453 22.5742 18.6803C22.9313 18.511 23.2293 18.1236 23.3095 17.7241C23.3486 17.5293 23.4398 17.3954 24.0772 16.5977L24.8005 15.6924L24.8933 15.7769C25.1226 15.9855 25.3545 16.0617 25.7628 16.0625C26.1336 16.0632 26.1693 16.0548 26.4897 15.8923C26.9081 15.6801 27.2448 15.3807 27.3895 15.0922C27.4792 14.913 27.5 14.8103 27.5 14.5446C27.5 14.3648 27.4775 14.1523 27.45 14.0724C27.3624 13.8178 24.8776 9.5761 24.7221 9.4159C24.532 9.2199 24.2631 9.08662 23.9357 9.02608C23.7221 8.98661 23.6345 8.99037 23.4255 9.04813C23.0943 9.13968 22.5822 9.43577 22.3567 9.66611C22.1922 9.83409 21.9995 10.2208 21.9995 10.3831C21.9995 10.4174 21.993 10.4455 21.9851 10.4455C21.9772 10.4455 21.779 10.3676 21.5447 10.2723C20.5613 9.87232 19.9189 9.77787 18.4543 9.81794C17.4898 9.8443 17.0948 9.90731 16.5562 10.1207L16.2051 10.2598L14.9018 10.093C12.9663 9.84524 12.5165 9.86066 11.4712 10.2106C11.2255 10.2929 11.0129 10.3457 10.9988 10.3281C10.9847 10.3105 10.9472 10.2191 10.9154 10.1251C10.7826 9.73195 10.4635 9.43808 9.87075 9.16313C9.53883 9.00917 9.20652 8.97247 8.90455 9.0565ZM9.71201 10.1267C10.0433 10.3268 10.1378 10.5025 10.0422 10.7412C9.97109 10.9187 7.6232 14.9687 7.54477 15.0491C7.37843 15.2197 7.09206 15.1804 6.70561 14.9339C6.46015 14.7773 6.36402 14.5828 6.43432 14.3852C6.52289 14.1363 8.86106 10.161 8.98676 10.0456C9.16037 9.88621 9.34859 9.90727 9.71201 10.1267ZM24.0168 10.0504C24.1513 10.174 26.5292 14.239 26.5764 14.426C26.6291 14.6347 26.5022 14.8229 26.1923 14.9952C25.8839 15.1666 25.6714 15.196 25.5115 15.0895C25.4201 15.0286 22.9832 10.8662 22.9258 10.6729C22.8842 10.5328 23.0029 10.2986 23.1656 10.2002C23.6698 9.89535 23.8194 9.86899 24.0168 10.0504ZM20.3526 10.846C20.7113 10.9365 22.2616 11.5509 22.3481 11.6369C22.3862 11.6748 22.8285 12.4159 23.331 13.2838C24.1359 14.6741 24.2383 14.8718 24.192 14.9456C24.1631 14.9916 23.8784 15.3531 23.5593 15.7489L22.9793 16.4686L22.8009 16.3023C22.5195 16.0401 18.7666 12.8354 18.6528 12.7602C18.5966 12.723 18.4902 12.6937 18.4165 12.695C18.3427 12.6963 17.5156 13.0077 16.5785 13.3871C15.2677 13.9176 14.8314 14.0765 14.6877 14.0758C13.9334 14.072 13.573 13.1715 14.121 12.6598C14.2833 12.5083 16.4172 11.1843 16.6988 11.0604C17.304 10.7942 17.6794 10.7467 19.0344 10.765C19.8087 10.7754 20.1574 10.7968 20.3526 10.846ZM13.9618 10.9179C14.3765 10.9662 14.75 11.0191 14.7919 11.0354C14.8499 11.0579 14.7278 11.1518 14.2809 11.4281C13.6028 11.8473 13.3795 12.0302 13.2 12.3138C12.9884 12.6484 12.9197 12.9222 12.9403 13.3499C12.9554 13.6652 12.9805 13.7694 13.099 14.0086C13.4492 14.7157 14.2137 15.1172 14.9628 14.9873C15.1222 14.9597 15.8578 14.6875 16.7726 14.3176C18.0659 13.7947 18.3257 13.7028 18.3869 13.7467C18.427 13.7755 19.3334 14.5479 20.4011 15.4631C22.4897 17.2534 22.4881 17.2517 22.3865 17.5577C22.3172 17.7666 22.1579 17.8788 21.9308 17.8788C21.7173 17.8788 21.7369 17.8934 20.8278 17.0564C20.2498 16.5243 20.2317 16.5118 20.0402 16.5118C19.8809 16.5118 19.8208 16.5351 19.7187 16.6366C19.6161 16.7386 19.5931 16.7977 19.5931 16.9587C19.5931 17.1952 19.5814 17.182 20.6889 18.1984C21.1334 18.6064 21.4866 18.9652 21.5194 19.0421C21.5955 19.2208 21.5522 19.4198 21.4081 19.5539C21.0999 19.8408 20.9612 19.7853 20.1796 19.0619C19.8215 18.7305 19.3977 18.3384 19.2377 18.1905C18.969 17.942 18.932 17.9215 18.751 17.9215C18.5918 17.9215 18.5316 17.9449 18.4295 18.0464C18.3255 18.1498 18.3039 18.2066 18.3039 18.3767V18.582L18.9688 19.2168C19.5044 19.7283 19.639 19.88 19.6612 19.998C19.7332 20.3793 19.3165 20.6983 18.9779 20.521C18.9263 20.494 18.6194 20.2239 18.2961 19.9208C17.9236 19.5717 17.6566 19.355 17.5677 19.3296C17.3707 19.2735 17.1467 19.3881 17.0435 19.598C16.9177 19.854 16.9889 19.9857 17.5148 20.4698C17.7632 20.6984 17.994 20.9386 18.0277 21.0034C18.1303 21.2006 18.1063 21.414 17.9656 21.5538C17.6985 21.8193 17.4849 21.7755 17.022 21.3605L16.6885 21.0614L16.6894 20.7197C16.6904 20.3339 16.5784 20.0281 16.3351 19.7526C16.1984 19.5979 15.7477 19.3313 15.6228 19.3313C15.5697 19.3313 15.5536 19.2877 15.5536 19.1435C15.5536 18.5277 15.125 17.9409 14.5525 17.7728C14.3796 17.7221 14.3746 17.7155 14.386 17.554C14.4215 17.0543 14.0368 16.4619 13.53 16.2357C13.2903 16.1288 13.2284 16.1191 12.8897 16.1352L12.5149 16.153L12.4164 15.9685C12.1449 15.4598 11.4744 15.1525 10.896 15.2719C10.54 15.3453 10.2491 15.567 9.77298 16.1273C9.54338 16.3975 9.34137 16.624 9.32396 16.6307C9.3066 16.6374 9.09411 16.3803 8.85178 16.0594C8.46937 15.5531 8.41703 15.4641 8.45528 15.3852C8.47951 15.3352 9.00163 14.4299 9.61545 13.3736L10.7316 11.4529L11.5218 11.1838C12.6442 10.8016 12.8095 10.7836 13.9618 10.9179ZM11.4582 16.2536C11.6447 16.3666 11.7194 16.6064 11.6323 16.8128C11.5291 17.0577 10.4214 18.3319 10.2645 18.3862C10.0288 18.4679 9.75717 18.3529 9.66525 18.1323C9.55838 17.8759 9.62434 17.7496 10.2625 16.9883C10.5931 16.5939 10.9085 16.2497 10.9633 16.2235C11.1165 16.1502 11.3067 16.1618 11.4582 16.2536ZM13.2331 17.1476C13.3862 17.2569 13.4614 17.4316 13.429 17.6031C13.3942 17.7873 11.9177 19.5618 11.7655 19.6023C11.3476 19.7135 11.0175 19.4327 11.1043 19.0397C11.1283 18.9314 12.1852 17.632 12.5769 17.2294C12.7918 17.0086 13.0017 16.9825 13.2331 17.1476ZM14.3841 18.7144C14.5022 18.7967 14.6083 18.9937 14.6083 19.131C14.6083 19.265 14.5084 19.4071 13.9268 20.1013C13.2662 20.8896 13.1562 20.9586 12.8154 20.7978C12.6345 20.7124 12.5261 20.4942 12.5643 20.2922C12.5814 20.2016 12.7839 19.9264 13.1714 19.4671C13.4913 19.088 13.795 18.7486 13.8464 18.7128C13.9675 18.6284 14.2619 18.6293 14.3841 18.7144ZM15.5635 20.3124C15.6226 20.3586 15.6951 20.4544 15.7246 20.5252C15.8221 20.7591 15.7531 20.9055 15.2901 21.4483C15.0512 21.7285 14.8173 21.9845 14.7704 22.0172C14.6479 22.1024 14.385 22.0977 14.2469 22.0077C14.0998 21.9119 13.9929 21.6693 14.028 21.5108C14.0587 21.3716 14.8519 20.412 15.0259 20.3034C15.1856 20.2037 15.4298 20.2078 15.5635 20.3124Z" stroke="#3A3E40" stroke-width="0.2" mask="url(#path-2-outside-1_94_10369)"/>
</svg>
