<svg width="108" height="108" viewBox="0 0 108 108" fill="none" xmlns="http://www.w3.org/2000/svg">
<circle cx="54" cy="54" r="54" fill="#F7FAFC"/>
<path fill-rule="evenodd" clip-rule="evenodd" d="M58.6735 60.03C54.0355 63.7447 47.2465 63.4523 42.9471 59.1529C38.334 54.5399 38.334 47.0607 42.9471 42.4476C47.5602 37.8345 55.0395 37.8345 59.6525 42.4476C63.9519 46.747 64.2443 53.5359 60.5296 58.174L69.552 67.1963C70.0646 67.7088 70.0646 68.5399 69.552 69.0525C69.0395 69.5651 68.2084 69.5651 67.6958 69.0525L58.6735 60.03ZM44.8033 57.2969C41.2153 53.7088 41.2153 47.8917 44.8033 44.3038C48.3912 40.7158 54.2084 40.7158 57.7964 44.3038C61.3816 47.8891 61.3843 53.7003 57.8043 57.289C57.8017 57.2916 57.799 57.2941 57.7962 57.2969C57.7936 57.2995 57.791 57.3021 57.7885 57.3047C54.1998 60.8847 48.3886 60.8821 44.8033 57.2969Z" fill="#B0BABF"/>
</svg>
