<svg width="32" height="32" viewBox="0 0 32 32" fill="none" xmlns="http://www.w3.org/2000/svg">
<rect width="32" height="32" rx="8" fill="#F7FAFC"/>
<path fill-rule="evenodd" clip-rule="evenodd" d="M18.3851 19.4455C15.7348 21.5682 11.8553 21.4011 9.39854 18.9443C6.7625 16.3083 6.7625 12.0345 9.39854 9.39842C12.0346 6.76238 16.3085 6.76238 18.9445 9.39842C21.4013 11.8552 21.5684 15.7346 19.4457 18.3849L24.6014 23.5405C24.8943 23.8334 24.8943 24.3083 24.6014 24.6012C24.3085 24.8941 23.8336 24.8941 23.5407 24.6012L18.3851 19.4455ZM10.4592 17.8837C8.40895 15.8334 8.40895 12.5093 10.4592 10.4591C12.5095 8.40883 15.8336 8.40883 17.8839 10.4591C19.9326 12.5078 19.9341 15.8285 17.8884 17.8792C17.8869 17.8807 17.8854 17.8821 17.8838 17.8837C17.8823 17.8852 17.8808 17.8867 17.8794 17.8882C15.8287 19.9339 12.5079 19.9324 10.4592 17.8837Z" fill="#3A3E40"/>
</svg>
