<svg xmlns="http://www.w3.org/2000/svg" width="33" height="32" viewBox="0 0 33 32" fill="none">
<rect x="0.5" width="32" height="32" rx="8" fill="#00ab26"/>
<path fill-rule="evenodd" clip-rule="evenodd" d="M23.766 14.4837C24.7579 15.2512 24.7579 16.7486 23.766 17.5161C20.7685 19.8355 17.4213 21.6637 13.8497 22.9321L13.1973 23.1639C11.949 23.6072 10.6305 22.7627 10.4615 21.4741C9.98932 17.8739 9.98932 14.1259 10.4615 10.5257C10.6305 9.23719 11.949 8.39263 13.1973 8.83597L13.8497 9.06771C17.4213 10.3362 20.7685 12.1643 23.766 14.4837ZM22.8481 16.3298C23.0639 16.1628 23.0639 15.837 22.8481 15.67C19.9763 13.448 16.7695 11.6965 13.3477 10.4812L12.6952 10.2495C12.3703 10.1341 11.9969 10.354 11.9488 10.7208C11.4936 14.1915 11.4936 17.8083 11.9488 21.2791C11.9969 21.6458 12.3703 21.8658 12.6952 21.7504L13.3477 21.5187C16.7695 20.3034 19.9763 18.5519 22.8481 16.3298Z" fill="#ffffff"/>
</svg>