<svg width="25" height="24" viewBox="0 0 25 24" fill="none" xmlns="http://www.w3.org/2000/svg">
<path d="M5.75 7C5.75 6.58579 6.0858 6.25 6.5 6.25C6.9142 6.25 7.25 6.58579 7.25 7V17C7.25 17.4142 6.9142 17.75 6.5 17.75C6.0858 17.75 5.75 17.4142 5.75 17V7Z" fill="black"/>
<path d="M10.046 10.9457C9.35598 11.4796 9.35598 12.5213 10.046 13.0552C12.1842 14.7096 14.5717 16.0136 17.1192 16.9184L17.5852 17.084C18.4549 17.3928 19.3742 16.8044 19.492 15.906C19.8288 13.3375 19.8288 10.6635 19.492 8.09497C19.3742 7.19653 18.4549 6.60814 17.5852 6.91701L17.1192 7.08253C14.5717 7.98732 12.1842 9.29132 10.046 10.9457Z" fill="black"/>
</svg>
