<svg width="16" height="12" viewBox="0 0 16 12" fill="none" xmlns="http://www.w3.org/2000/svg">
<path fill-rule="evenodd" clip-rule="evenodd" d="M1.10277 3.26489C0.892663 5.21706 0.902031 7.46856 1.1944 9.41279C1.35617 10.4886 2.23417 11.3133 3.31798 11.4076L4.45065 11.506C6.81245 11.7113 9.18755 11.7113 11.5494 11.506L12.682 11.4076C13.7659 11.3133 14.6439 10.4886 14.8056 9.41279C15.098 7.46856 15.1074 5.21721 14.8972 3.265C14.8701 3.03868 14.8396 2.81267 14.8056 2.58703C14.6439 1.51124 13.7659 0.686498 12.682 0.592283L11.5494 0.493823C9.18755 0.288518 6.81245 0.288518 4.45065 0.493823L3.31798 0.592283C2.23417 0.686498 1.35617 1.51124 1.1944 2.58703C1.16047 2.81262 1.12993 3.0386 1.10277 3.26489ZM4.54807 1.6146C6.845 1.41493 9.155 1.41493 11.452 1.6146L12.5846 1.71306C13.1503 1.76224 13.6086 2.19275 13.6931 2.75432C13.7019 2.81264 13.7104 2.87098 13.7188 2.92935L9.548 5.24646C8.5853 5.78129 7.4147 5.78129 6.45199 5.24646L2.28129 2.92938C2.28958 2.871 2.29812 2.81264 2.30689 2.75432C2.39134 2.19275 2.84965 1.76224 3.4154 1.71306L4.54807 1.6146ZM13.8564 4.13983C14.0019 5.84061 13.9474 7.55429 13.6931 9.24546C13.6086 9.80706 13.1503 10.2376 12.5846 10.2868L11.452 10.3852C9.155 10.5849 6.845 10.5849 4.54807 10.3852L3.4154 10.2868C2.84965 10.2376 2.39134 9.80706 2.30689 9.24546C2.05257 7.55429 1.99815 5.84069 2.14363 4.13985L5.90564 6.22986C7.20815 6.95346 8.79185 6.95346 10.0943 6.22986L13.8564 4.13983Z" fill="#B0BABF"/>
</svg>
