<svg width="25" height="24" viewBox="0 0 25 24" fill="none" xmlns="http://www.w3.org/2000/svg">
<path d="M19.25 7C19.25 6.58579 18.9142 6.25 18.5 6.25C18.0858 6.25 17.75 6.58579 17.75 7V17C17.75 17.4142 18.0858 17.75 18.5 17.75C18.9142 17.75 19.25 17.4142 19.25 17V7Z" fill="black"/>
<path d="M14.954 10.9457C15.644 11.4796 15.644 12.5213 14.954 13.0552C12.8158 14.7096 10.4283 16.0136 7.88082 16.9184L7.41477 17.084C6.54513 17.3928 5.62584 16.8044 5.50801 15.906C5.17116 13.3375 5.17116 10.6635 5.50801 8.09497C5.62584 7.19653 6.54513 6.60814 7.41477 6.91701L7.88082 7.08253C10.4283 7.98732 12.8158 9.29132 14.954 10.9457Z" fill="black"/>
</svg>
