<svg width="24" height="24" viewBox="0 0 24 24" fill="none" xmlns="http://www.w3.org/2000/svg">
<path d="M10.5417 19.2668C11.0144 14.4337 11.0144 9.56607 10.5417 4.73298C10.4992 4.29826 10.2011 3.9322 9.78898 3.79843C8.14606 3.26511 6.35388 3.26511 4.71096 3.79843C4.2989 3.93219 4.00076 4.29826 3.95825 4.73298C3.4856 9.56607 3.4856 14.4337 3.95825 19.2668C4.00076 19.7015 4.2989 20.0676 4.71096 20.2014C6.35388 20.7347 8.14606 20.7347 9.78898 20.2014C10.2011 20.0676 10.4992 19.7015 10.5417 19.2668Z" fill="white"/>
<path d="M20.0417 19.2668C20.5144 14.4337 20.5144 9.56607 20.0417 4.73298C19.9992 4.29826 19.7011 3.9322 19.289 3.79843C17.6461 3.26511 15.8539 3.26511 14.211 3.79843C13.7989 3.93219 13.5008 4.29826 13.4583 4.73298C12.9856 9.56607 12.9856 14.4337 13.4583 19.2668C13.5008 19.7015 13.7989 20.0676 14.211 20.2014C15.8539 20.7347 17.6461 20.7347 19.289 20.2014C19.7011 20.0676 19.9992 19.7015 20.0417 19.2668Z" fill="white"/>
</svg>
