<svg width="14" height="14" viewBox="0 0 14 14" fill="none" xmlns="http://www.w3.org/2000/svg">
<path fill-rule="evenodd" clip-rule="evenodd" d="M2.3802 5.39408C3.72069 8.31297 6.10608 10.6336 9.07135 11.8911L9.08073 11.895L9.65358 12.1503C10.3831 12.4754 11.2405 12.2445 11.7082 11.5972L12.664 10.2744C12.7224 10.1937 12.7073 10.0813 12.6297 10.0187L10.9612 8.67259C10.8783 8.60569 10.7562 8.62129 10.6928 8.70687L10.0434 9.58317C9.8857 9.79602 9.60085 9.86997 9.35958 9.76077C7.14228 8.75727 5.36047 6.97549 4.35702 4.7582C4.24781 4.51687 4.32176 4.23206 4.53457 4.07435L5.41086 3.42495C5.49648 3.3615 5.51208 3.23953 5.44515 3.15658L4.09887 1.4878C4.03629 1.41024 3.92399 1.39518 3.84319 1.4535L2.51322 2.41362C1.86162 2.88402 1.63216 3.74865 1.96476 4.48023L2.37976 5.3931C2.37991 5.39343 2.38006 5.39376 2.3802 5.39408ZM8.62743 12.9248C5.40543 11.5571 2.81391 9.03484 1.35738 5.86249L1.3565 5.86062L0.940624 4.94583C0.386299 3.72651 0.768739 2.28546 1.85473 1.50147L3.1847 0.541354C3.75029 0.133047 4.53646 0.238504 4.97445 0.781422L6.32073 2.45021C6.78918 3.03084 6.68005 3.88463 6.08065 4.32881L5.57853 4.70093C6.42678 6.34669 7.771 7.69099 9.4168 8.53917L9.78895 8.03704C10.2331 7.43772 11.0869 7.32859 11.6676 7.79704L13.3361 9.14307C13.8792 9.58122 13.9845 10.3677 13.5759 10.9333L12.6201 12.2561C11.8406 13.335 10.4115 13.7197 9.19578 13.178L8.62743 12.9248Z" fill="#B0BABF"/>
</svg>
